<svg id="Capa_1" data-name="Capa 1" xmlns="http://www.w3.org/2000/svg" viewBox="0 0 498.73 552.59"><defs><style>.cls-1{fill:#151315;}</style></defs><title>facebook</title><path class="cls-1" d="M356.75,286.6l7.36-56.34h-56V194.17c0-16.36,4.57-27.5,28-27.5H366V116.11a394.48,394.48,0,0,0-43.61-2.24c-43.1,0-72.64,26.35-72.64,74.58v41.71H200.93V286.6h48.82v145h58.33v-145Z" transform="translate(-34.09 -7.12)"/><path class="cls-1" d="M51.82,349.64a261.05,261.05,0,0,0,64.63,112.92,359.25,359.25,0,0,0,133.9,89.49,18,18,0,0,0,2.29.75,64.71,64.71,0,0,0,29.18,6.91,94.39,94.39,0,0,0,33.76-7.21A363.27,363.27,0,0,0,464.74,445.85a259.65,259.65,0,0,0,53.7-110.33A593.81,593.81,0,0,0,532,174.58c-.79-18.7-2.33-37.14-3.78-55l-1.44-17.6c-1.49-19.24-12-31.72-31.37-37.09L295.1,8.91,277.7,7.12l-19,5.32c-9.94,2.89-20.18,5.82-30.33,8.65L70.76,65a39.46,39.46,0,0,0-30.82,35.74,866,866,0,0,0-5.67,118.09A550.47,550.47,0,0,0,51.82,349.64ZM289.53,33,488.86,88.61c9.15,2.59,12.63,6.52,13.27,14.92l1.44,17.7c1.45,17.6,2.94,35.85,3.68,54a566.71,566.71,0,0,1-12.92,154.14,235.08,235.08,0,0,1-48.58,100,338,338,0,0,1-139.22,99.44,70.2,70.2,0,0,1-24.86,5.57,40.57,40.57,0,0,1-18.84-4.67l-2.09-.85-1.74-.5A334.57,334.57,0,0,1,134.7,445.7a236.55,236.55,0,0,1-59-102.52,526.81,526.81,0,0,1-16.7-125,841.2,841.2,0,0,1,5.52-114.75A14.91,14.91,0,0,1,77.33,88.86L234.84,45c10.24-2.84,20.38-5.77,30.48-8.7l14.46-4Z" transform="translate(-34.09 -7.12)"/></svg>