<svg id="Capa_1" data-name="Capa 1" xmlns="http://www.w3.org/2000/svg" viewBox="0 0 419.55 464.72"><defs><style>.cls-1{fill:#151315;}</style></defs><title>facebook</title><path class="cls-1" d="M345.4,286.16l6.13-47.52h-47V208.3c0-13.76,3.83-23.13,23.56-23.13h25.14v-42.5a335.65,335.65,0,0,0-36.66-1.87c-36.28,0-61.1,22.14-61.1,62.81v35h-41v47.52h41V408.07h49.06V286.16Z" transform="translate(-74.01 -51)"/><path class="cls-1" d="M89,339.06c9.4,35,27.21,66,54.46,94.93A301.56,301.56,0,0,0,256,509.27a18.6,18.6,0,0,0,1.92.61,54.06,54.06,0,0,0,24.57,5.84c11.16,0,21-3.26,28.38-6.1,49.62-19.21,91.87-49.37,125.56-89.65,21.9-26.18,36.67-56.53,45.16-92.81,9.7-41.47,13.43-85.73,11.4-135.32-.65-15.72-1.93-31.26-3.16-46.28l-1.2-14.81c-1.25-16.19-10.13-26.69-26.38-31.21l-168.71-47L278.93,51l-16,4.47q-12.75,3.69-25.51,7.28L104.9,99.62c-15.27,4.24-24.23,14.65-25.92,30.1-4,35.9-5.55,68.38-4.78,99.3C75.2,269.86,80,305.85,89,339.06ZM289,72.91l167.65,46.77c7.67,2.14,10.59,5.46,11.15,12.71l1.2,14.86c1.22,14.82,2.48,30.14,3.11,45.44,2,47.68-1.6,90.11-10.87,129.7-7.73,33-21.08,60.56-40.83,84.16-31.4,37.54-70.79,65.66-117.07,83.57-5.65,2.19-13.12,4.7-20.84,4.7a33.77,33.77,0,0,1-15.85-3.95l-1.76-.7c-.72-.2-1.12-.32-1.47-.45a280.84,280.84,0,0,1-104.79-70.07c-24.81-26.33-41-54.47-49.48-86S96.07,267.67,95.1,228.5c-.74-29.95.78-61.52,4.66-96.49.76-7,3.67-10.29,10.74-12.25L243.06,82.89c8.59-2.4,17.14-4.86,25.63-7.32l12.14-3.4Z" transform="translate(-74.01 -51)"/></svg>