<svg id="Capa_5" data-name="Capa 5" xmlns="http://www.w3.org/2000/svg" viewBox="0 0 422.01 422.01"><defs><style>.cls-1{fill:#151315;}.cls-2{fill:#fff;}</style></defs><title>flecha</title><circle class="cls-1" cx="211" cy="211" r="211"/><path class="cls-2" d="M184.28,331.09l87.1-78.19,6.68-6,1.44-1.3.24-.21c.32-.3,3-2.4,1.05-.89-2.61,2,3.06-1.26,1.07-.5s2.17-.48,2.07-.46c-2.8.66-.3,0,.69,0s3.43.66.69,0c.87.22,1.75.39,2.6.66-2.91-.92.92.6,1.33.86-1.93-1.19-.1,0,.25.32l.25.22c1.43,1.33,2.91,2.62,4.37,3.93l49.1,44.07L385,331.09c5.73,5.15,15.49,5.15,21.21,0a12.66,12.66,0,0,0,0-19l-89.09-80c-6.67-6-12.94-11.77-22.48-14.19a40.69,40.69,0,0,0-36.08,8.48c-1.06.9-2.08,1.86-3.11,2.79l-48.49,43.53-43.86,39.37a12.69,12.69,0,0,0,0,19,16.48,16.48,0,0,0,21.22,0Z" transform="translate(-73.62 -72.45)"/></svg>