<svg id="Capa_5" data-name="Capa 5" xmlns="http://www.w3.org/2000/svg" viewBox="0 0 503.68 433.3"><defs><style>.cls-1{fill:#e4c43d;}</style></defs><title>icono-nexo</title><path class="cls-1" d="M30.62,128.4c1.79-4.44,3.07-9.19,5.47-13.28,6-10.23,15.67-14.55,27.21-15.06,24.79-1.09,49.32.92,73.26,7.6A206.7,206.7,0,0,1,204.25,141c30.83,22.77,54.59,51.83,75.5,83.54,14.35,21.78,28.47,43.73,43.45,65.07C334.67,305.94,347.76,321,364,333.05c18.21,13.51,38.78,20.82,61,23.89,1.7.23,3.41.37,6.23.67-2.07-2.74-3.55-4.79-5.14-6.76-5.71-7.08-9.42-15-9.39-24.22,0-15.72,11.57-28.6,27.29-30.88,12.29-1.78,22.24,1.82,30.16,11.66C490,327.12,506,346.76,522.26,366.09c5.46,6.48,9.66,13.34,12,21.4v9.65c-3.63,13.82-14.46,22.49-23.42,32.42-14,15.5-28.55,30.51-42.43,46.11-17.34,19.49-39.68,12.23-50.31-3.94-9.43-14.34-7.83-29.25,4-41.76,1.9-2,3.72-4.08,6.19-6.81-5.52-.65-10.22-1.17-14.92-1.78-34.11-4.42-64.78-16.93-91.64-38.66-22.58-18.28-41.21-40.11-57.51-63.93-15.18-22.19-29.22-45.17-44.62-67.21-10.94-15.65-22.39-31.14-35.26-45.2-18-19.63-40.88-31.53-67-37.32-18.1-4-36.35-4.53-54.76-4.3a43.66,43.66,0,0,1-15.24-2.57c-8.38-3.08-12.9-10-15.35-18.41-.41-1.39-1-2.74-1.44-4.11Z" transform="translate(-30.62 -54.1)"/><path class="cls-1" d="M534.31,154.15c-3.39,14.41-14.44,23.8-23.06,34.7-12.37,15.64-25.41,30.73-37.86,46.31-10.6,13.26-27.79,13.5-39.27,7.55-14.53-7.53-20.81-22.08-15.79-37.15,1.77-5.33,5.22-10.13,8.1-15.06,1.17-2,2.86-3.72,4.81-6.19-50.31,3.52-83.59,32-110.38,71.26a29.38,29.38,0,0,1-2.74-3q-17.16-26.2-34.18-52.47a3.63,3.63,0,0,1,.15-3.36C298.32,179.57,314,164,332.34,151.08c26.62-18.77,56.39-28.55,88.57-31.7,2-.19,4-.44,6-.71.21,0,.37-.33.77-.72-2.88-3.42-5.8-6.82-8.65-10.28C407.12,93.22,411.77,73,425,62.2c8.59-7,18.32-10.58,29.06-6.15a41.26,41.26,0,0,1,13.68,9.44c16.09,16.84,31.88,34,47.5,51.27,6,6.7,13.26,12.61,16.61,21.44.8,2.1,1.62,4.2,2.44,6.3Z" transform="translate(-30.62 -54.1)"/><path class="cls-1" d="M30.62,402c2.19-4.84,3.79-10.06,6.69-14.43,4.63-7,11.8-10.34,20.17-10.59,11-.34,22-.07,32.94-.68,33.53-1.86,64-12.12,88.64-35.63,10.3-9.83,19-21.39,28-32.49,5.29-6.52,9.78-13.67,15.26-21.42.73,1.17,1.25,2.09,1.85,2.95,11.83,17.36,23.7,34.69,35.43,52.11a4.07,4.07,0,0,1-.1,3.75c-20.07,25.92-43.07,48.79-71.19,65.92-26.93,16.4-56.19,26.36-87.69,29-11.86,1-23.81,1.14-35.72,1.1-17.58-.06-28.53-8.79-33.25-25.71a24.83,24.83,0,0,0-1-2.58Z" transform="translate(-30.62 -54.1)"/></svg>