<svg id="Capa_6" data-name="Capa 6" xmlns="http://www.w3.org/2000/svg" viewBox="0 0 510.56 523.67"><defs><style>.cls-1{fill:#e4c43d;}</style></defs><title>icono-portafolio</title><path class="cls-1" d="M539.24,323.8c-.06-18.12-.12-36.86-.11-55.28q0-6.9,0-13.79c0-11.13.05-22.64,0-34-.36-44.05-29.39-80-72.24-89.54a98.19,98.19,0,0,0-21.2-2c-39.11,0-78.88,0-117.33,0-67.48,0-137.26.07-205.88-.22h-.41c-44.87,0-83.2,30.94-91.24,73.71a116.34,116.34,0,0,0-1.75,21.14c0,26,0,52.44.06,78,.08,48.57.17,98.79-.33,148.17-.49,48.26,33.75,88.67,79.66,94.06.11,0,.21.12.32.18.26.15.52.3.78.42l.58.27H457.79l.41-.13c3-.94,6.21-1.77,9.27-2.58,6.91-1.82,14-3.7,20.53-6.95,32.62-16.37,50.17-43.49,50.76-78.45C539.5,412.53,539.37,367.42,539.24,323.8ZM116.06,508.13c-30.09,0-51.43-20.75-51.9-50.41-.42-26.58-.32-53.63-.23-79.78q.06-15.82.09-31.63l.49.3c3,1.82,5.88,3.54,8.9,5a94.82,94.82,0,0,0,42.16,9.48h.05c100.66,0,210.77-.05,336.6,0h0c19.32,0,35.95-4.69,50.85-14.34.29-.19.6-.39.92-.58,0,.3,0,.59,0,.87l0,27.25c0,26.79.07,54.49-.05,81.72-.12,25.24-13.91,43.61-37.84,50.42a51.53,51.53,0,0,1-14.06,1.66C320.09,508.21,213.3,508.22,116.06,508.13Zm388-264.36c0,8.44,0,16.86,0,24.24-.1,31.95-21.53,53.44-53.33,53.48-39.12.05-78.91,0-117.38,0l-96.23,0c-39.27,0-79.88,0-119.82,0h-.13c-18.15,0-32.08-6.46-42.57-19.76-6.44-8.15-9.83-16.67-10.07-25.3-.54-18.7-1-42.66-.21-62.11,1.19-27.81,22.72-48.26,51.18-48.61,2.91,0,5.86,0,8.79,0h7.11l7.15,0h79.28q116.34,0,232.68,0h0c18.47,0,32.56,6.56,43.08,20.06,7.08,9.09,10.5,19.64,10.46,32.24C504.05,225.85,504.06,234.83,504.07,243.77Z" transform="translate(-28.78 -21.33)"/><path class="cls-1" d="M217.35,114.83c9.13.6,17.17-6.12,18.7-15.61a50.17,50.17,0,0,0,.46-5.08l0-.72c.8-14.12,12.18-28.83,25.89-33.48,9.85-3.34,20.31-2.74,30.42-2.15l2.7.15c13.05.71,23.35,7.16,30.6,19.14,3.35,5.53,5.13,11.93,5.61,20.15A19,19,0,0,0,338,110.5a17.26,17.26,0,0,0,11.52,4.37c.38,0,.76,0,1.14,0a18,18,0,0,0,17-19c-1-27-12.9-48.13-35.34-62.74C318.82,24.29,303,20.48,283.93,21.49h-7.61c-20.64.14-38.42,7.25-52.82,21.12-15,14.4-22.78,32.48-23.2,53.72A18,18,0,0,0,217.35,114.83Z" transform="translate(-28.78 -21.33)"/><path class="cls-1" d="M148.85,377.57a17.5,17.5,0,0,0-17.16,16.8c-.11,2.1-.08,4.2-.05,6.23,0,.91,0,1.81,0,2.72v1.49c0,.46,0,.92,0,1.38,0,2.16-.07,4.39.07,6.63a17.15,17.15,0,0,0,17,16.32h.49c9.45,0,16.92-6.78,17.46-15.95a170.89,170.89,0,0,0,0-19.47A17.07,17.07,0,0,0,148.85,377.57Z" transform="translate(-28.78 -21.33)"/><path class="cls-1" d="M436.41,393.82a17.36,17.36,0,0,0-17.11-16.25H419a17.27,17.27,0,0,0-17.46,16.17,170.48,170.48,0,0,0,0,19.45c.53,9.18,8,16,17.47,16h.45a17.14,17.14,0,0,0,17-16.33c.15-2.25.11-4.49.07-6.66,0-.94,0-1.89,0-2.84s0-1.92,0-2.87C436.52,398.29,436.56,396.06,436.41,393.82Z" transform="translate(-28.78 -21.33)"/><path class="cls-1" d="M134.47,178.72H119.69a43,43,0,0,0-42.9,42.9v20.5a10.07,10.07,0,1,0,20.13,0c0-.12,0-.24,0-.35V221.62a22.82,22.82,0,0,1,22.79-22.79l14.78,0a10.07,10.07,0,0,0,0-20.13Z" transform="translate(-28.78 -21.33)"/></svg>