<svg id="Capa_8" data-name="Capa 8" xmlns="http://www.w3.org/2000/svg" viewBox="0 0 534.15 534.15"><defs><style>.cls-1{fill:#e4c43d;}</style></defs><title>icono-otc</title><path class="cls-1" d="M233.52,461.19V405.11H165.8c2.3-13.64,4.52-26.71,6.8-40.2h20.33c13.31,0,16.78-3.5,16.78-16.94V206.12c0-11.4-6.44-18.28-17.91-18.63-8.52-.26-17.06-.05-25.81-.05V151.55h67.39V96.41h34v53.52H294V96.36h33.88v4.33c0,15.81.05,31.61-.05,47.41,0,2.52.62,3.45,3.29,3.73,15.37,1.64,30.53,4.2,44.83,10.56,21.88,9.75,32.94,26.52,33.78,50.37.44,12.27-1.3,23.89-8.21,34.35a50.21,50.21,0,0,1-14.68,14.32c-1.67,1.1-3.43,2.08-5.81,3.52l5,1.55c14.23,4.32,26.65,11.3,35.07,24,5.25,7.94,7.43,16.89,8.1,26.24,1.12,15.51-.8,30.58-7.19,44.88-7.36,16.48-20.31,26.76-36.78,33.22-16.92,6.64-34.64,8.89-52.58,10-4.8.29-4.81.23-4.81,5q0,23.53,0,47.05c0,1.42-.16,2.84-.24,4.25H294.13v-55H267.39v3.43q0,24,0,48a34.26,34.26,0,0,0,.34,3.5Zm34.7-96.34c1.07.08,1.89.22,2.71.2,13.17-.28,26.38-.06,39.5-1,12.06-.9,23.93-3.25,34.91-9,16.84-8.81,22.05-28.31,11.73-44.18-5-7.63-12.42-11.44-20.61-14.31-14.81-5.18-30.22-5.78-45.68-5.95-7.44-.08-14.89,0-22.56,0Zm0-107.84c.93.09,1.52.2,2.1.19,9.49-.18,19,.18,28.45-.74a133.2,133.2,0,0,0,26.09-4.93c9.4-2.88,17.4-8.54,20.49-18.63,5.08-16.6-2.81-31.67-19.37-37.8-18.53-6.85-37.8-5.66-57-5.23-.2,0-.38.24-.76.5Z" transform="translate(-16.18 -16)"/><path class="cls-1" d="M267.75,461.19a34.26,34.26,0,0,1-.34-3.5q0-24,0-48v-3.43h26.74v55Z" transform="translate(-16.18 -16)"/><path class="cls-1" d="M283.25,550.15C136,550.15,16.18,430.34,16.18,283.08S136,16,283.25,16,550.33,135.81,550.33,283.08,430.52,550.15,283.25,550.15Zm0-503.15C153.08,47,47.18,152.91,47.18,283.08s105.9,236.07,236.07,236.07,236.08-105.9,236.08-236.07S413.43,47,283.25,47Z" transform="translate(-16.18 -16)"/></svg>