<?xml version="1.0" encoding="utf-8"?>
<!-- Generator: Adobe Illustrator 22.1.0, SVG Export Plug-In . SVG Version: 6.00 Build 0)  -->
<svg version="1.1" xmlns="http://www.w3.org/2000/svg" xmlns:xlink="http://www.w3.org/1999/xlink" x="0px" y="0px"
	 viewBox="0 0 566.9 566.9" style="enable-background:new 0 0 566.9 566.9;" xml:space="preserve">
<style type="text/css">
	.st0{display:none;}
	.st1{display:inline;fill:#151315;}
	.st2{fill:#151315;}
</style>
<g id="Capa_1" class="st0">
	<path class="st1" d="M345.4,286.2l6.1-47.5h-47.1v-30.3c0-13.8,3.8-23.1,23.6-23.1l25.1,0v-42.5c-4.3-0.6-19.3-1.9-36.7-1.9
		c-36.3,0-61.1,22.1-61.1,62.8v35h-41v47.5h41v121.9h49.1V286.2H345.4z"/>
	<path class="st1" d="M89,339.1c9.4,35,27.2,66,54.5,94.9c31.5,33.4,69.4,58.7,112.6,75.3c0.6,0.2,1.3,0.4,1.9,0.6
		c7.7,3.9,16,5.8,24.6,5.8c11.2,0,21-3.3,28.4-6.1c49.6-19.2,91.9-49.4,125.6-89.7c21.9-26.2,36.7-56.5,45.2-92.8
		c9.7-41.5,13.4-85.7,11.4-135.3c-0.7-15.7-1.9-31.3-3.2-46.3l-1.2-14.8c-1.3-16.2-10.1-26.7-26.4-31.2l-168.7-47L278.9,51l-16,4.5
		c-8.5,2.5-17,4.9-25.5,7.3L104.9,99.6c-15.3,4.2-24.2,14.7-25.9,30.1c-4,35.9-5.5,68.4-4.8,99.3C75.2,269.9,80,305.9,89,339.1z
		 M289,72.9l167.6,46.8c7.7,2.1,10.6,5.5,11.2,12.7l1.2,14.9c1.2,14.8,2.5,30.1,3.1,45.4c2,47.7-1.6,90.1-10.9,129.7
		c-7.7,33-21.1,60.6-40.8,84.2c-31.4,37.5-70.8,65.7-117.1,83.6c-5.6,2.2-13.1,4.7-20.8,4.7c-5.5,0-10.8-1.3-15.8-3.9l-1.8-0.7
		c-0.7-0.2-1.1-0.3-1.5-0.5c-40.2-15.4-75.5-39-104.8-70.1c-24.8-26.3-41-54.5-49.5-86c-8.5-31.6-13.1-66-14.1-105.1
		c-0.7-30,0.8-61.5,4.7-96.5c0.8-7,3.7-10.3,10.7-12.3l132.6-36.9c8.6-2.4,17.1-4.9,25.6-7.3l12.1-3.4L289,72.9z"/>
</g>
<g id="Capa_2">
	<path class="st2" d="M661.5,77l1.5-11.4h-11.3v-7.3c0-3.3,0.9-5.5,5.6-5.5l6,0V42.7c-1-0.1-4.6-0.4-8.8-0.4
		c-8.7,0-14.6,5.3-14.6,15v8.4h-9.8V77h9.8v29.2h11.7V77H661.5z"/>
	<path class="st2" d="M681.5,178.9c-2.4,1.1-5.1,1.8-7.8,2.1c2.8-1.7,5-4.4,6-7.5c-2.6,1.6-5.5,2.7-8.7,3.3c-2.5-2.7-6-4.3-10-4.3
		c-7.5,0-13.6,6.1-13.6,13.6c0,1.1,0.1,2.1,0.4,3.1c-11.3-0.6-21.4-6-28.1-14.2c-1.2,2-1.8,4.4-1.8,6.9c0,4.7,2.4,8.9,6.1,11.3
		c-2.2-0.1-4.3-0.7-6.2-1.7v0.2c0,6.6,4.7,12.1,10.9,13.4c-1.1,0.3-2.3,0.5-3.6,0.5c-0.9,0-1.7-0.1-2.6-0.2
		c1.7,5.4,6.8,9.4,12.7,9.5c-4.7,3.7-10.5,5.8-16.9,5.8c-1.1,0-2.2-0.1-3.3-0.2c6,3.9,13.2,6.1,20.9,6.1c25.1,0,38.8-20.8,38.8-38.8
		c0-0.6,0-1.2,0-1.8C677.4,184,679.7,181.6,681.5,178.9z"/>
	<path class="st2" d="M600.2,89.7c2.2,8.4,6.5,15.8,13,22.7c7.5,8,16.6,14,26.9,18c0.1,0.1,0.3,0.1,0.5,0.1c1.8,0.9,3.8,1.4,5.9,1.4
		c2.7,0,5-0.8,6.8-1.5c11.9-4.6,22-11.8,30-21.4c5.2-6.3,8.8-13.5,10.8-22.2c2.3-9.9,3.2-20.5,2.7-32.4c-0.2-3.8-0.5-7.5-0.8-11.1
		l-0.3-3.5c-0.3-3.9-2.4-6.4-6.3-7.5l-40.3-11.3l-3.5-0.4l-3.8,1.1c-2,0.6-4.1,1.2-6.1,1.7L604,32.4c-3.7,1-5.8,3.5-6.2,7.2
		c-1,8.6-1.3,16.4-1.1,23.8C596.9,73.1,598.1,81.7,600.2,89.7z M648,26l40.1,11.2c1.8,0.5,2.5,1.3,2.7,3l0.3,3.6
		c0.3,3.5,0.6,7.2,0.7,10.9c0.5,11.4-0.4,21.5-2.6,31c-1.8,7.9-5,14.5-9.8,20.1c-7.5,9-16.9,15.7-28,20c-1.4,0.5-3.1,1.1-5,1.1
		c-1.3,0-2.6-0.3-3.8-0.9l-0.4-0.2c-0.2,0-0.3-0.1-0.4-0.1c-9.6-3.7-18.1-9.3-25.1-16.8c-5.9-6.3-9.8-13-11.8-20.6
		c-2-7.5-3.1-15.8-3.4-25.1c-0.2-7.2,0.2-14.7,1.1-23.1c0.2-1.7,0.9-2.5,2.6-2.9l31.7-8.8c2.1-0.6,4.1-1.2,6.1-1.8l2.9-0.8L648,26z"
		/>
	<path class="st2" d="M696.1,169.5l-0.3-3.5c-0.3-3.9-2.4-6.4-6.3-7.5l-40.3-11.3l-3.5-0.4l-3.8,1.1c-2,0.6-4.1,1.2-6.1,1.7
		l-31.7,8.8c-3.7,1-5.8,3.5-6.2,7.2c-1,8.6-1.3,16.4-1.1,23.8c0.2,9.8,1.4,18.4,3.5,26.3c2.2,8.4,6.5,15.8,13,22.7
		c7.5,8,16.6,14,26.9,18c0.1,0.1,0.3,0.1,0.5,0.1c1.8,0.9,3.8,1.4,5.9,1.4c2.7,0,5-0.8,6.8-1.5c11.9-4.6,22-11.8,30-21.4
		c5.2-6.3,8.8-13.5,10.8-22.2c2.3-9.9,3.2-20.5,2.7-32.4C696.7,176.8,696.4,173.1,696.1,169.5z M646.1,151.9l2,0.2l40.1,11.2
		c1.8,0.5,2.5,1.3,2.7,3l0.3,3.6c0.3,3.5,0.6,7.2,0.7,10.9c0.5,11.4-0.4,21.5-2.6,31c-1.8,7.9-5,14.5-9.8,20.1
		c-7.5,9-16.9,15.7-28,20c-1.4,0.5-3.1,1.1-5,1.1c-1.3,0-2.6-0.3-3.8-0.9l-0.4-0.2c-0.2,0-0.3-0.1-0.4-0.1
		c-9.6-3.7-18.1-9.3-25.1-16.8c-5.9-6.3-9.8-13-11.8-20.6c-2-7.5-3.1-15.8-3.4-25.1c-0.2-7.2,0.2-14.7,1.1-23.1
		c0.2-1.7,0.9-2.5,2.6-2.9l31.7-8.8c2.1-0.6,4.1-1.2,6.1-1.8L646.1,151.9z"/>
	<path class="st2" d="M696.1,295.5l-0.3-3.5c-0.3-3.9-2.4-6.4-6.3-7.5l-40.3-11.3l-3.5-0.4l-3.8,1.1c-2,0.6-4.1,1.2-6.1,1.7
		l-31.7,8.8c-3.7,1-5.8,3.5-6.2,7.2c-1,8.6-1.3,16.4-1.1,23.8c0.2,9.8,1.4,18.4,3.5,26.3c2.2,8.4,6.5,15.8,13,22.7
		c7.5,8,16.6,14,26.9,18c0.1,0.1,0.3,0.1,0.5,0.1c1.8,0.9,3.8,1.4,5.9,1.4c2.7,0,5-0.8,6.8-1.5c11.9-4.6,22-11.8,30-21.4
		c5.2-6.3,8.8-13.5,10.8-22.2c2.3-9.9,3.2-20.5,2.7-32.4C696.7,302.9,696.4,299.1,696.1,295.5z M646.1,278l2,0.2l40.1,11.2
		c1.8,0.5,2.5,1.3,2.7,3l0.3,3.6c0.3,3.5,0.6,7.2,0.7,10.9c0.5,11.4-0.4,21.5-2.6,31c-1.8,7.9-5,14.5-9.8,20.1
		c-7.5,9-16.9,15.7-28,20c-1.4,0.5-3.1,1.1-5,1.1c-1.3,0-2.6-0.3-3.8-0.9l-0.4-0.2c-0.2,0-0.3-0.1-0.4-0.1
		c-9.6-3.7-18.1-9.3-25.1-16.8c-5.9-6.3-9.8-13-11.8-20.6c-2-7.5-3.1-15.8-3.4-25.1c-0.2-7.2,0.2-14.7,1.1-23.1
		c0.2-1.7,0.9-2.5,2.6-2.9l31.7-8.8c2.1-0.6,4.1-1.2,6.1-1.8L646.1,278z"/>
	<path class="st2" d="M697.6,427.9l-0.3-3.5c-0.3-3.9-2.4-6.4-6.3-7.5l-40.3-11.3l-3.5-0.4l-3.8,1.1c-2,0.6-4.1,1.2-6.1,1.7
		l-31.7,8.8c-3.7,1-5.8,3.5-6.2,7.2c-1,8.6-1.3,16.4-1.1,23.8c0.2,9.8,1.4,18.4,3.5,26.3c2.2,8.4,6.5,15.8,13,22.7
		c7.5,8,16.6,14,26.9,18c0.1,0.1,0.3,0.1,0.5,0.1c1.8,0.9,3.8,1.4,5.9,1.4c2.7,0,5-0.8,6.8-1.5c11.9-4.6,22-11.8,30-21.4
		c5.2-6.3,8.8-13.5,10.8-22.2c2.3-9.9,3.2-20.5,2.7-32.4C698.2,435.2,697.9,431.5,697.6,427.9z M647.6,410.4l2,0.2l40.1,11.2
		c1.8,0.5,2.5,1.3,2.7,3l0.3,3.6c0.3,3.5,0.6,7.2,0.7,10.9c0.5,11.4-0.4,21.5-2.6,31c-1.8,7.9-5,14.5-9.8,20.1
		c-7.5,9-16.9,15.7-28,20c-1.4,0.5-3.1,1.1-5,1.1c-1.3,0-2.6-0.3-3.8-0.9l-0.4-0.2c-0.2,0-0.3-0.1-0.4-0.1
		c-9.6-3.7-18.1-9.3-25.1-16.8c-5.9-6.3-9.8-13-11.8-20.6c-2-7.5-3.1-15.8-3.4-25.1c-0.2-7.2,0.2-14.7,1.1-23.1
		c0.2-1.7,0.9-2.5,2.6-2.9l31.7-8.8c2.1-0.6,4.1-1.2,6.1-1.8L647.6,410.4z"/>
	<path class="st2" d="M678.7,312.6c0,8.2,0,16.4,0,24.6c-0.1,0.9-0.3,1.9-0.3,2.8c-0.5,8.1-5.5,14.2-13.4,16.1
		c-2,0.5-4.1,0.6-6.1,0.9c-8.2,0-16.4,0-24.6,0c-0.8-0.1-1.7-0.3-2.5-0.3c-9.3-0.5-16.4-7.3-16.6-16.6c-0.3-10-0.3-20.1,0-30.2
		c0.3-9.2,7.3-16.2,16.5-16.5c10-0.3,20.1-0.3,30.2,0c8.1,0.2,14.1,5.4,16,13.4C678.2,308.7,678.4,310.7,678.7,312.6z M672.6,325.1
		c0-4.5,0.1-9.1,0-13.6c-0.3-7.7-4.6-12.1-12.2-12.3c-9.1-0.2-18.2-0.2-27.3,0c-7.7,0.2-12.1,4.5-12.2,12.3
		c-0.2,9.1-0.2,18.1,0,27.2c0.2,7.9,4.6,12.2,12.5,12.4c9.1,0.2,18.1,0.2,27.2,0c7.5-0.2,11.9-4.6,12.2-12.2
		C672.8,334.3,672.6,329.7,672.6,325.1z"/>
	<path class="st2" d="M646.6,341.5c-9.2-0.1-16.4-7.4-16.3-16.6c0.1-9.2,7.5-16.4,16.6-16.2c9.1,0.1,16.2,7.4,16.2,16.5
		C663,334.4,655.7,341.6,646.6,341.5z M646.6,335.7c6,0,10.7-4.6,10.7-10.5c0-5.9-4.6-10.6-10.4-10.7c-6-0.1-10.7,4.6-10.8,10.5
		C636.1,330.9,640.7,335.7,646.6,335.7z"/>
	<path class="st2" d="M663.7,304.2c2.2,0,3.9,1.6,3.9,3.7c0,2.1-1.6,3.9-3.7,3.9c-2.1,0-3.9-1.7-3.9-3.8
		C659.8,306,661.6,304.3,663.7,304.2z"/>
	<path class="st2" d="M660,446.7c-1.6,4.2-3.3,8.4-4.9,12.5c-2.7,6.9-5.4,13.8-8.1,20.7c-0.2,0.5-0.3,1.1-1.1,1
		c-0.8,0-1.3-0.1-1.7-1c-4.9-10.8-9.9-21.7-14.9-32.5c-0.1-0.3-0.3-0.6-0.5-1.2c-0.1,0.5-0.1,0.7-0.1,0.9c0,7.5,0,14.9,0,22.4
		c0,0.8,0.4,1.7,0.8,2.3c1.9,2.5,4,4.8,5.9,7.3c0.3,0.4,0.4,1,0.7,1.7c-6.3,0-12.4,0-18.7,0c0.3-0.6,0.4-1.2,0.7-1.6
		c2-2.4,4-4.8,5.9-7.3c0.5-0.7,0.9-1.6,0.9-2.5c0.1-9,0-18,0-26.9c0-1-0.3-1.8-1-2.6c-1.7-2-3.4-4.1-5.1-6.1c-0.3-0.4-0.4-1-0.7-1.6
		c0.6,0,0.9-0.1,1.1-0.1c5.3,0,10.6,0,15.9,0c0.7,0,1,0.3,1.3,0.9c4.2,9.3,8.5,18.6,12.7,27.9c0.2,0.3,0.3,0.7,0.6,1.2
		c0.2-0.5,0.4-0.8,0.5-1.1c3.7-9.3,7.5-18.6,11.2-27.9c0.3-0.7,0.6-0.9,1.4-0.9c5,0,10,0,14.9,0c0.3,0,0.7,0,1.3,0
		c-0.3,0.7-0.4,1.2-0.8,1.6c-1.4,1.4-2.9,2.7-4.3,4.1c-0.4,0.4-0.6,1-0.6,1.5c0,11.4,0,22.9,0,34.3c0,0.5,0.3,1.2,0.7,1.6
		c1.3,1.4,2.7,2.7,4,4.1c0.3,0.4,0.5,0.9,0.8,1.5c-8.3,0-16.2,0-24.2,0c-0.2-0.6-0.1-1.1,0.4-1.6c1.5-1.4,2.9-2.7,4.2-4.2
		c0.4-0.4,0.6-1,0.6-1.5c0-8.9,0-17.8,0-26.7c0-0.1,0-0.2,0-0.4C660.1,446.7,660,446.7,660,446.7z"/>
</g>
<g id="Capa_4">
	<path class="st2" d="M490,145.6l-1.2-14.8c-1.3-16.2-10.1-26.7-26.4-31.2L293.6,52.5L278.9,51l-16,4.5c-8.5,2.5-17,4.9-25.5,7.3
		L104.8,99.6c-15.3,4.2-24.2,14.7-25.9,30.1c-4,35.9-5.5,68.4-4.8,99.4c1,40.9,5.8,76.9,14.8,110.1c9.4,35,27.2,66.1,54.5,95
		c31.5,33.4,69.4,58.8,112.7,75.3c0.6,0.2,1.3,0.4,1.9,0.6c7.7,3.9,16,5.8,24.6,5.8c11.2,0,21-3.3,28.4-6.1
		c49.7-19.2,91.9-49.4,125.6-89.7c21.9-26.2,36.7-56.6,45.2-92.9c9.7-41.5,13.4-85.8,11.4-135.4C492.5,176.2,491.2,160.6,490,145.6z
		 M280.8,72.2l8.2,0.7l167.8,46.8c7.7,2.1,10.6,5.5,11.2,12.7l1.2,14.9c1.2,14.8,2.5,30.2,3.1,45.5c2,47.7-1.6,90.2-10.9,129.8
		c-7.7,33-21.1,60.6-40.9,84.2c-31.4,37.6-70.8,65.7-117.1,83.6c-5.7,2.2-13.1,4.7-20.9,4.7c-5.5,0-10.8-1.3-15.9-3.9l-1.8-0.7
		c-0.7-0.2-1.1-0.3-1.5-0.5c-40.2-15.4-75.5-39-104.9-70.1c-24.8-26.3-41-54.5-49.5-86.1c-8.5-31.6-13.1-66-14.1-105.2
		c-0.7-30,0.8-61.6,4.7-96.6c0.8-7,3.7-10.3,10.8-12.3L243,82.9c8.6-2.4,17.2-4.9,25.6-7.3L280.8,72.2z"/>
	<path class="st2" d="M417.3,217.1c0,34.3,0,68.7,0,103c-0.5,3.9-1.1,7.9-1.3,11.8c-2,34-23,59.5-56.1,67.4c-8.4,2-17,2.6-25.6,3.8
		c-34.3,0-68.7,0-103,0c-3.5-0.5-7-1.1-10.5-1.3c-38.9-2.2-68.4-30.6-69.5-69.5c-1.2-42-1.2-84.2,0-126.2
		c1.1-38.6,30.4-67.9,69.1-69c42-1.2,84.2-1.1,126.2,0c33.9,0.9,59.1,22.8,67,55.9C415.4,200.9,416,209.1,417.3,217.1z M392,269.2
		c0-18.9,0.5-37.9-0.1-56.8c-1.1-32.1-19.1-50.7-51.2-51.4c-38.1-0.8-76.2-0.8-114.3,0c-32.2,0.7-50.5,19-51.2,51.3
		c-0.8,37.9-0.9,75.8,0,113.7c0.7,33,19.1,51.2,52.1,51.8c37.9,0.7,75.8,0.7,113.7,0c31.5-0.6,49.9-19.4,51-51
		C392.5,307.6,392,288.4,392,269.2z"/>
	<path class="st2" d="M282.9,337.9c-38.4-0.4-68.5-31.1-68.1-69.3c0.5-38.4,31.2-68.4,69.5-67.9c38.1,0.5,67.9,31,67.7,69
		C351.8,308,321.1,338.3,282.9,337.9z M283,313.7c25,0.1,44.7-19.3,44.8-44.1c0.1-24.6-19.2-44.4-43.6-44.6
		c-25.1-0.2-44.9,19-45.1,43.8C238.9,293.7,258.3,313.5,283,313.7z"/>
	<path class="st2" d="M354.5,182c9.2-0.1,16.1,6.5,16.3,15.6c0.1,9-6.8,16.3-15.7,16.5c-8.6,0.2-16.3-7.2-16.5-15.9
		C338.4,189.5,345.6,182.1,354.5,182z"/>
</g>
<g id="Capa_3" class="st0">
	<path class="st1" d="M429.1,184.9c-10.2,4.5-21.2,7.6-32.8,9c11.8-7.1,20.8-18.2,25.1-31.6c-11,6.5-23.2,11.3-36.2,13.8
		c-10.4-11.1-25.2-18-41.6-18c-31.5,0-57,25.5-57,57c0,4.5,0.5,8.8,1.5,13c-47.4-2.4-89.4-25.1-117.5-59.6
		c-4.9,8.4-7.7,18.2-7.7,28.7c0,19.8,10.1,37.2,25.4,47.5c-9.3-0.3-18.1-2.9-25.8-7.1v0.7c0,27.6,19.7,50.7,45.7,55.9
		c-4.8,1.3-9.8,2-15,2c-3.7,0-7.3-0.4-10.7-1c7.3,22.7,28.3,39.1,53.3,39.6c-19.5,15.3-44.1,24.4-70.8,24.4c-4.6,0-9.1-0.3-13.6-0.8
		c25.2,16.2,55.2,25.6,87.4,25.6c104.9,0,162.2-86.9,162.2-162.2c0-2.5-0.1-4.9-0.2-7.4C411.8,206.4,421.4,196.4,429.1,184.9z"/>
	<path class="st1" d="M489.9,145.6l-1.2-14.8c-1.3-16.2-10.1-26.7-26.4-31.2L293.6,52.5L278.9,51l-16,4.5c-8.5,2.5-17,4.9-25.5,7.3
		L104.8,99.6c-15.3,4.2-24.2,14.7-25.9,30.1c-4,35.9-5.5,68.4-4.8,99.3c1,40.8,5.8,76.9,14.8,110.1c9.4,35,27.2,66,54.5,95
		c31.5,33.4,69.4,58.7,112.6,75.3c0.6,0.2,1.3,0.4,1.9,0.6c7.7,3.9,16,5.8,24.6,5.8c11.2,0,21-3.3,28.4-6.1
		c49.6-19.2,91.9-49.4,125.6-89.7c21.9-26.2,36.7-56.6,45.2-92.8c9.7-41.5,13.4-85.8,11.4-135.4
		C492.4,176.2,491.2,160.6,489.9,145.6z M280.8,72.2l8.2,0.7l167.7,46.8c7.7,2.1,10.6,5.5,11.2,12.7l1.2,14.9
		c1.2,14.8,2.5,30.1,3.1,45.5c2,47.7-1.6,90.1-10.9,129.7c-7.7,33-21.1,60.6-40.8,84.2c-31.4,37.5-70.8,65.7-117.1,83.6
		c-5.6,2.2-13.1,4.7-20.8,4.7c-5.5,0-10.8-1.3-15.8-3.9l-1.8-0.7c-0.7-0.2-1.1-0.3-1.5-0.5c-40.2-15.4-75.5-39-104.8-70.1
		c-24.8-26.3-41-54.5-49.5-86.1c-8.5-31.6-13.1-66-14.1-105.1c-0.7-30,0.8-61.5,4.7-96.5c0.8-7,3.7-10.3,10.7-12.3L243,82.9
		c8.6-2.4,17.1-4.9,25.6-7.3L280.8,72.2z"/>
</g>
</svg>
