<svg id="Capa_6" data-name="Capa 6" xmlns="http://www.w3.org/2000/svg" viewBox="0 0 484 343.51"><defs><style>.cls-1{fill:#fff;}</style></defs><title>menu blanco</title><path class="cls-1" d="M66.7,157.47H502c12.41,0,23-9.63,23.47-22a22.9,22.9,0,0,0-22.87-23.72H67.23c-11.9,0-22.23,8.88-23.31,20.74A22.9,22.9,0,0,0,66.7,157.47Z" transform="translate(-41.46 -111.71)"/><path class="cls-1" d="M502.58,260.58H67.23c-11.91,0-22.23,8.89-23.31,20.75a22.91,22.91,0,0,0,22.78,25H502c12.41,0,23-9.64,23.47-22.05A22.91,22.91,0,0,0,502.58,260.58Z" transform="translate(-41.46 -111.71)"/><path class="cls-1" d="M500.23,409.46H64.88c-11.91,0-22.24,8.88-23.32,20.74a22.9,22.9,0,0,0,22.79,25H499.62c12.42,0,23-9.63,23.47-22A22.9,22.9,0,0,0,500.23,409.46Z" transform="translate(-41.46 -111.71)"/></svg>