<svg id="Capa_6" data-name="Capa 6" xmlns="http://www.w3.org/2000/svg" viewBox="0 0 484 343.51"><defs><style>.cls-1{fill:#151315;}</style></defs><title>menu</title><path class="cls-1" d="M66.7,157.47H502.58a22.88,22.88,0,1,0,0-45.76H66.7a22.88,22.88,0,0,0,0,45.76Z" transform="translate(-41.46 -111.71)"/><path class="cls-1" d="M502.58,260.58H66.7a22.89,22.89,0,0,0,0,45.77H502.58a22.89,22.89,0,0,0,0-45.77Z" transform="translate(-41.46 -111.71)"/><path class="cls-1" d="M500.23,409.46H64.35a22.88,22.88,0,1,0,0,45.76H500.23a22.88,22.88,0,0,0,0-45.76Z" transform="translate(-41.46 -111.71)"/></svg>