<svg id="Capa_2" data-name="Capa 2" xmlns="http://www.w3.org/2000/svg" viewBox="0 0 625.4 495.95"><defs><style>.cls-1{fill:#151315;}</style></defs><title>midium</title><path class="cls-1" d="M661.52,77,663,65.67H651.73V58.41c0-3.29.92-5.53,5.64-5.53h6V42.71a79.79,79.79,0,0,0-8.77-.45c-8.67,0-14.61,5.3-14.61,15v8.39h-9.81V77H640v29.16h11.73V77Z" transform="translate(-73.06 -20.79)"/><path class="cls-1" d="M681.52,178.88a27,27,0,0,1-7.83,2.15,13.67,13.67,0,0,0,6-7.55,27,27,0,0,1-8.66,3.31,13.65,13.65,0,0,0-23.59,9.33,13.86,13.86,0,0,0,.36,3.11A38.74,38.74,0,0,1,619.69,175a13.66,13.66,0,0,0,4.22,18.2,13.46,13.46,0,0,1-6.17-1.7v.17A13.64,13.64,0,0,0,628.67,205a13.7,13.7,0,0,1-3.59.48,13.55,13.55,0,0,1-2.56-.25,13.64,13.64,0,0,0,12.73,9.47,27.31,27.31,0,0,1-16.93,5.84,29.09,29.09,0,0,1-3.25-.19,38.65,38.65,0,0,0,20.9,6.12c25.08,0,38.79-20.77,38.79-38.79,0-.59,0-1.18,0-1.76A27.67,27.67,0,0,0,681.52,178.88Z" transform="translate(-73.06 -20.79)"/><path class="cls-1" d="M600.19,89.68a52.49,52.49,0,0,0,13,22.71,72.24,72.24,0,0,0,26.93,18,3.53,3.53,0,0,0,.46.15,13,13,0,0,0,5.87,1.39,19,19,0,0,0,6.79-1.45,73.06,73.06,0,0,0,30-21.45,52.23,52.23,0,0,0,10.8-22.19,119.49,119.49,0,0,0,2.73-32.37c-.16-3.76-.47-7.47-.76-11.07l-.29-3.54c-.3-3.87-2.42-6.38-6.31-7.46L649.12,21.15l-3.5-.36-3.82,1.07c-2,.58-4.06,1.17-6.1,1.74L604,32.42a7.94,7.94,0,0,0-6.2,7.19,174.24,174.24,0,0,0-1.14,23.75A110.73,110.73,0,0,0,600.19,89.68ZM648,26l40.09,11.18c1.84.52,2.54,1.31,2.67,3l.29,3.56c.29,3.54.59,7.21.74,10.87a114,114,0,0,1-2.6,31,47.25,47.25,0,0,1-9.77,20.12,68,68,0,0,1-28,20,14.15,14.15,0,0,1-5,1.12,8.15,8.15,0,0,1-3.79-.94l-.42-.17-.35-.1A67.3,67.3,0,0,1,616.86,109,47.55,47.55,0,0,1,605,88.38a106,106,0,0,1-3.36-25.14,169.32,169.32,0,0,1,1.11-23.08,3,3,0,0,1,2.57-2.93L637,28.41c2.06-.57,4.1-1.16,6.13-1.75l2.91-.81Z" transform="translate(-73.06 -20.79)"/><path class="cls-1" d="M696.07,169.47l-.29-3.54c-.3-3.87-2.42-6.38-6.31-7.46l-40.35-11.25-3.5-.36-3.82,1.07q-3,.88-6.1,1.74L604,158.49a7.94,7.94,0,0,0-6.2,7.2,174.09,174.09,0,0,0-1.14,23.75,110.72,110.72,0,0,0,3.53,26.31,52.49,52.49,0,0,0,13,22.71,72.24,72.24,0,0,0,26.93,18,3.53,3.53,0,0,0,.46.15,13,13,0,0,0,5.87,1.39,18.83,18.83,0,0,0,6.79-1.45,73.06,73.06,0,0,0,30-21.45,52.23,52.23,0,0,0,10.8-22.19,119.49,119.49,0,0,0,2.73-32.37C696.67,176.78,696.36,173.07,696.07,169.47Zm-50-17.55,2,.18,40.09,11.18c1.84.52,2.54,1.31,2.67,3l.29,3.56c.29,3.54.59,7.21.74,10.87a114,114,0,0,1-2.6,31,47.34,47.34,0,0,1-9.77,20.13,68,68,0,0,1-28,20,14.15,14.15,0,0,1-5,1.12,8.15,8.15,0,0,1-3.79-.94l-.42-.17-.35-.1A67.3,67.3,0,0,1,616.86,235,47.55,47.55,0,0,1,605,214.45a106,106,0,0,1-3.36-25.14,169.32,169.32,0,0,1,1.11-23.08,3,3,0,0,1,2.57-2.93l31.7-8.82c2.06-.57,4.1-1.16,6.13-1.75Z" transform="translate(-73.06 -20.79)"/><path class="cls-1" d="M696.07,295.54l-.29-3.54c-.29-3.87-2.42-6.38-6.31-7.46l-40.35-11.25-3.5-.36L641.8,274q-3,.88-6.1,1.74L604,284.56a7.94,7.94,0,0,0-6.2,7.2,174.09,174.09,0,0,0-1.14,23.75,110.72,110.72,0,0,0,3.53,26.31,52.44,52.44,0,0,0,13,22.71,72.12,72.12,0,0,0,26.93,18,3.53,3.53,0,0,0,.46.15,12.84,12.84,0,0,0,5.87,1.39,18.83,18.83,0,0,0,6.79-1.45,73.06,73.06,0,0,0,30-21.45A52.23,52.23,0,0,0,694.1,339a119.49,119.49,0,0,0,2.73-32.37C696.67,302.85,696.36,299.14,696.07,295.54Zm-50-17.55,2,.18,40.09,11.19c1.84.51,2.54,1.3,2.67,3l.29,3.56c.29,3.54.59,7.21.74,10.87a114,114,0,0,1-2.6,31A47.34,47.34,0,0,1,679.46,358a68,68,0,0,1-28,20,13.93,13.93,0,0,1-5,1.12,8.15,8.15,0,0,1-3.79-.94l-.42-.17-.35-.1a67.3,67.3,0,0,1-25.06-16.76A47.55,47.55,0,0,1,605,340.52a106,106,0,0,1-3.36-25.14,169.32,169.32,0,0,1,1.11-23.08,3,3,0,0,1,2.57-2.93l31.7-8.81,6.13-1.75Z" transform="translate(-73.06 -20.79)"/><path class="cls-1" d="M697.58,427.91l-.28-3.54c-.3-3.87-2.43-6.38-6.31-7.46l-40.35-11.25-3.5-.36-3.82,1.07-6.1,1.74-31.71,8.82a7.94,7.94,0,0,0-6.2,7.19,175.86,175.86,0,0,0-1.14,23.75,110.71,110.71,0,0,0,3.54,26.32,52.37,52.37,0,0,0,13,22.71,72.24,72.24,0,0,0,26.93,18,3.53,3.53,0,0,0,.46.15,13,13,0,0,0,5.87,1.39,18.82,18.82,0,0,0,6.79-1.46,73,73,0,0,0,30-21.44,52.23,52.23,0,0,0,10.8-22.19A119.09,119.09,0,0,0,698.34,439C698.18,435.22,697.88,431.51,697.58,427.91Zm-50-17.55,2,.18,40.1,11.18c1.83.51,2.53,1.31,2.66,3l.29,3.56c.29,3.54.59,7.2.74,10.87a114,114,0,0,1-2.6,31A47.29,47.29,0,0,1,681,490.33a68,68,0,0,1-28,20,14.21,14.21,0,0,1-5,1.12,8.15,8.15,0,0,1-3.79-.94l-.42-.17-.35-.1a67.3,67.3,0,0,1-25.06-16.76,47.55,47.55,0,0,1-11.84-20.58,106,106,0,0,1-3.36-25.14,170.94,170.94,0,0,1,1.11-23.08,3,3,0,0,1,2.57-2.93l31.71-8.82c2.05-.57,4.1-1.16,6.13-1.75Z" transform="translate(-73.06 -20.79)"/><path class="cls-1" d="M678.69,312.64v24.63c-.11.94-.27,1.88-.32,2.82-.47,8.12-5.49,14.23-13.4,16.11-2,.47-4.07.61-6.11.9H634.23c-.84-.11-1.67-.27-2.51-.32-9.29-.53-16.36-7.32-16.62-16.61q-.44-15.07,0-30.17a16.69,16.69,0,0,1,16.51-16.49c10-.29,20.12-.26,30.17,0,8.1.21,14.13,5.45,16,13.36C678.25,308.75,678.4,310.71,678.69,312.64Zm-6,12.44c0-4.53.12-9.06,0-13.58-.26-7.67-4.57-12.12-12.24-12.29q-13.67-.29-27.33,0c-7.7.17-12.08,4.55-12.25,12.26q-.3,13.57,0,27.16c.17,7.89,4.56,12.23,12.45,12.39q13.59.27,27.17,0c7.54-.15,11.94-4.65,12.19-12.18C672.77,334.25,672.64,329.66,672.65,325.08Z" transform="translate(-73.06 -20.79)"/><path class="cls-1" d="M646.56,341.51A16.4,16.4,0,1,1,663.1,325.2,16.31,16.31,0,0,1,646.56,341.51Zm0-5.8A10.6,10.6,0,1,0,636.1,325,10.52,10.52,0,0,0,646.6,335.71Z" transform="translate(-73.06 -20.79)"/><path class="cls-1" d="M663.69,304.24a3.7,3.7,0,0,1,3.89,3.73,3.85,3.85,0,0,1-3.75,3.94,4,4,0,0,1-4-3.79A3.84,3.84,0,0,1,663.69,304.24Z" transform="translate(-73.06 -20.79)"/><path class="cls-1" d="M660,446.69Q657.51,453,655,459.22q-4.06,10.36-8.14,20.71c-.2.5-.27,1.08-1.11,1s-1.3-.12-1.69-1q-7.4-16.28-14.88-32.5l-.53-1.15c0,.47-.09.7-.09.93,0,7.47,0,14.93,0,22.39a4,4,0,0,0,.83,2.28c1.92,2.47,4,4.83,5.92,7.27a7.15,7.15,0,0,1,.71,1.67H617.39a7.08,7.08,0,0,1,.68-1.57c2-2.44,4-4.8,5.91-7.28a4.33,4.33,0,0,0,.88-2.46c.07-9,0-17.95,0-26.92a3.69,3.69,0,0,0-1-2.56c-1.73-2-3.42-4.06-5.08-6.13a6.77,6.77,0,0,1-.66-1.58c.57,0,.86-.08,1.15-.08,5.31,0,10.63,0,15.94,0a1.26,1.26,0,0,1,1.33.9q6.35,14,12.72,27.94c.15.34.31.67.55,1.19.21-.47.36-.81.5-1.15q5.61-14,11.19-27.93a1.23,1.23,0,0,1,1.37-.95c5,0,9.95,0,14.93,0h1.32a6.24,6.24,0,0,1-.75,1.59c-1.39,1.41-2.88,2.73-4.26,4.15a2.36,2.36,0,0,0-.63,1.48q0,17.14,0,34.29a2.61,2.61,0,0,0,.67,1.57c1.31,1.4,2.73,2.69,4,4.08a7,7,0,0,1,.81,1.54H654.87a1.29,1.29,0,0,1,.42-1.57c1.45-1.35,2.88-2.73,4.24-4.16a2.43,2.43,0,0,0,.65-1.49c0-8.91,0-17.81,0-26.72,0-.12,0-.24,0-.36Z" transform="translate(-73.06 -20.79)"/><path class="cls-1" d="M489.82,145.77l-1.19-14.85c-1.26-16.22-10.16-26.74-26.45-31.27L293.1,52.51,278.43,51l-16,4.48c-8.53,2.46-17,4.91-25.57,7.3L104,99.72c-15.3,4.26-24.28,14.69-26,30.17-4,36-5.55,68.54-4.79,99.52,1,40.93,5.85,77,14.82,110.28,9.42,35,27.27,66.17,54.57,95.14a302.46,302.46,0,0,0,112.84,75.45,18,18,0,0,0,1.93.61A54.25,54.25,0,0,0,282,516.74c11.18,0,21.07-3.26,28.44-6.11,49.74-19.25,92.07-49.48,125.84-89.85,21.95-26.23,36.75-56.66,45.26-93C491.29,286.21,495,241.84,493,192.15,492.34,176.39,491.06,160.82,489.82,145.77ZM280.34,72.22l8.2.73,168,46.88c7.69,2.14,10.62,5.47,11.18,12.74l1.2,14.89c1.22,14.85,2.48,30.2,3.12,45.54,2,47.79-1.61,90.31-10.89,130-7.75,33.1-21.14,60.69-40.93,84.34-31.47,37.62-70.94,65.8-117.33,83.76-5.66,2.19-13.15,4.7-20.88,4.7a33.89,33.89,0,0,1-15.88-4l-1.77-.7c-.72-.21-1.12-.33-1.47-.46a281.46,281.46,0,0,1-105-70.22C133,394.07,116.8,365.87,108.3,334.24s-13.13-66.1-14.1-105.35c-.75-30,.78-61.65,4.67-96.7.76-7,3.68-10.31,10.76-12.28L242.48,83c8.61-2.4,17.18-4.87,25.69-7.33Z" transform="translate(-73.06 -20.79)"/><path class="cls-1" d="M332.22,224.46q-10.35,26.25-20.7,52.51-17.06,43.38-34.12,86.76c-.82,2.09-1.12,4.52-4.63,4.38-3.33-.14-5.47-.51-7.1-4.09q-31-68.17-62.34-136.17c-.59-1.27-1.17-2.54-2.22-4.83-.21,2-.41,2.95-.41,3.91,0,31.27-.11,62.55.14,93.81a17,17,0,0,0,3.48,9.56c8,10.33,16.61,20.24,24.8,30.46,1.39,1.74,1.84,4.24,3,7h-78.3c1.1-2.62,1.55-4.94,2.86-6.58,8.19-10.21,16.77-20.12,24.75-30.49a18.48,18.48,0,0,0,3.71-10.32c.26-37.6.14-75.21.19-112.82a15.43,15.43,0,0,0-4.07-10.7Q170.34,184.21,160,171.14c-1.32-1.64-1.72-4-2.77-6.63,2.38-.15,3.6-.3,4.82-.3,22.26,0,44.51.06,66.77-.1,3.08,0,4.39,1.14,5.58,3.76q26.56,58.59,53.31,117.1c.64,1.4,1.3,2.8,2.32,5,.85-2,1.5-3.38,2.08-4.82q23.48-58.5,46.88-117.06c1.18-3,2.57-4,5.76-3.95,20.85.15,41.7.08,62.54.08h5.56c-1.32,2.85-1.77,5.22-3.17,6.65-5.82,5.92-12.06,11.43-17.85,17.38a9.85,9.85,0,0,0-2.62,6.22q-.23,71.84,0,143.68a10.75,10.75,0,0,0,2.8,6.57c5.47,5.87,11.42,11.29,17,17.09,1.42,1.5,2,3.77,3.4,6.47H310.85c-1-2.61-.42-4.55,1.75-6.56,6.07-5.66,12-11.45,17.78-17.46a10.06,10.06,0,0,0,2.69-6.23c.16-37.32.12-74.65.12-112,0-.5-.07-1-.1-1.52Z" transform="translate(-73.06 -20.79)"/></svg>