<svg id="Capa_4" data-name="Capa 4" xmlns="http://www.w3.org/2000/svg" viewBox="0 0 499.29 552.93"><defs><style>.cls-1{fill:#151315;}</style></defs><title>midium</title><path class="cls-1" d="M528.78,119.61,527.39,102C525.9,82.74,515.3,70.25,496,64.88l-200.75-56L277.84,7.12l-19,5.32L228.49,21.1,70.73,65a39.52,39.52,0,0,0-30.85,35.77,876.77,876.77,0,0,0-5.67,118.16A551.13,551.13,0,0,0,51.82,349.85a260.62,260.62,0,0,0,64.68,113,359.53,359.53,0,0,0,134,89.55,16.53,16.53,0,0,0,2.29.74,64.51,64.51,0,0,0,29.2,6.92,93.87,93.87,0,0,0,33.78-7.26A363.19,363.19,0,0,0,465,446.12a259.79,259.79,0,0,0,53.73-110.4,592.25,592.25,0,0,0,13.83-160.94C531.77,156,530.28,137.52,528.78,119.61ZM280,32.3l10,.89,199.5,55.62c9.1,2.54,12.59,6.52,13.23,14.93l1.45,17.71c1.44,17.61,2.93,35.82,3.68,54.08A567.27,567.27,0,0,1,494.9,329.75a235.35,235.35,0,0,1-48.6,100.4A338.38,338.38,0,0,1,307,529.65a70.52,70.52,0,0,1-24.87,5.57,40.65,40.65,0,0,1-18.86-4.67l-2.09-.85-1.74-.5a334.76,334.76,0,0,1-124.67-83.38A236.59,236.59,0,0,1,75.85,343.43,527.4,527.4,0,0,1,59.14,218.36a850.31,850.31,0,0,1,5.52-114.82A14.93,14.93,0,0,1,77.45,89L235.21,45.08c10.19-2.84,20.39-5.77,30.49-8.71Z" transform="translate(-34.04 -7.12)"/><path class="cls-1" d="M341.82,213q-12.39,31.4-24.88,62.34-20.19,51.54-40.49,103c-1,2.49-1.35,5.37-5.52,5s-6.47-.59-8.41-5q-36.82-81-74-161.69L185.85,211c0,2.34-.45,3.48-.45,4.63V327a20,20,0,0,0,4.13,11.34c9.56,12.29,19.9,24,29.46,36.17a35.82,35.82,0,0,1,3.53,8.31H129.83a35.18,35.18,0,0,1,3.39-7.81c9.95-12.14,19.9-23.88,29.4-36.22A21.63,21.63,0,0,0,167,326.57c.35-44.78,0-89.3,0-133.93a18.37,18.37,0,0,0-5-12.74c-8.61-10-17-20.19-25.27-30.49a33.89,33.89,0,0,1-3.29-7.86c2.84,0,4.28-.4,5.73-.4h79.3a6.28,6.28,0,0,1,6.62,4.48q31.59,69.65,63.28,139c.74,1.69,1.54,3.33,2.73,5.92,1.05-2.34,1.8-4,2.49-5.72q27.92-69.66,55.67-138.95a6.13,6.13,0,0,1,6.82-4.73h80.84a31,31,0,0,1-3.73,7.91c-6.91,7-14.33,13.58-21.19,20.65a11.7,11.7,0,0,0-3.14,7.36V347.66a13,13,0,0,0,3.34,7.81c6.51,7,13.58,13.39,19.9,20.3a35.25,35.25,0,0,1,4,7.66H316.3a6.41,6.41,0,0,1,2.09-7.81c7.21-6.71,14.33-13.58,21.09-20.69a12.13,12.13,0,0,0,3.24-7.42V212.79Z" transform="translate(-34.04 -7.12)"/></svg>