<svg id="Capa_2" data-name="Capa 2" xmlns="http://www.w3.org/2000/svg" viewBox="0 0 498.72 552.57"><defs><style>.cls-1{fill:#151315;}</style></defs><title>twitter</title><path class="cls-1" d="M456.19,166.34A134,134,0,0,1,417.26,177a68,68,0,0,0,29.84-37.54A134.22,134.22,0,0,1,404,156a67.87,67.87,0,0,0-117.29,46.39,69.39,69.39,0,0,0,1.79,15.46,192.6,192.6,0,0,1-139.75-70.75,67.92,67.92,0,0,0,21,90.49,66.85,66.85,0,0,1-30.68-8.46v.85a67.81,67.81,0,0,0,54.34,66.27,67,67,0,0,1-30.57,1.15,67.81,67.81,0,0,0,63.29,47.08,135.87,135.87,0,0,1-84.18,29,145.34,145.34,0,0,1-16.15-1A192.14,192.14,0,0,0,229.73,403c124.69,0,192.85-103.27,192.85-192.86v-8.75A137.41,137.41,0,0,0,456.19,166.34Z" transform="translate(-34.11 -7.14)"/><path class="cls-1" d="M528.53,119.56,527.09,102c-1.49-19.24-12-31.72-31.37-37.08L295.11,8.93l-17.4-1.79-19,5.32q-14.91,4.38-30.32,8.65L70.78,65A39.49,39.49,0,0,0,40,100.76a865.93,865.93,0,0,0-5.66,118.08A550.06,550.06,0,0,0,51.84,349.65a260.92,260.92,0,0,0,64.63,112.91,359.14,359.14,0,0,0,133.89,89.49,18,18,0,0,0,2.29.75,64.58,64.58,0,0,0,29.18,6.91,93.54,93.54,0,0,0,33.76-7.21A363.33,363.33,0,0,0,464.75,445.85a259.65,259.65,0,0,0,53.69-110.32A593.78,593.78,0,0,0,532,174.59C531.52,155.9,530,137.45,528.53,119.56ZM279.94,32.3l9.95.89L489.21,88.78c9.14,2.58,12.62,6.51,13.27,14.92l1.44,17.69c1.44,17.6,2.94,35.85,3.68,54.05a566.56,566.56,0,0,1-12.92,154.12A235.42,235.42,0,0,1,446.1,429.65a338.06,338.06,0,0,1-139.21,99.43A70.25,70.25,0,0,1,282,534.65,40.54,40.54,0,0,1,263.19,530l-2.09-.85-1.74-.49a334.6,334.6,0,0,1-124.64-83.28,236.42,236.42,0,0,1-59-102.17,526.8,526.8,0,0,1-16.7-125,841.11,841.11,0,0,1,5.51-114.75A14.92,14.92,0,0,1,77.34,88.88L235,45c10.24-2.84,20.38-5.77,30.48-8.7Z" transform="translate(-34.11 -7.14)"/></svg>