<svg id="Capa_3" data-name="Capa 3" xmlns="http://www.w3.org/2000/svg" viewBox="0 0 419.67 464.86"><defs><style>.cls-1{fill:#151315;}</style></defs><title>twitter</title><path class="cls-1" d="M429.09,184.93a114,114,0,0,1-32.76,9,57.07,57.07,0,0,0,25.08-31.55,113.81,113.81,0,0,1-36.2,13.85,57.07,57.07,0,0,0-97.18,52,161.81,161.81,0,0,1-117.54-59.59,57.1,57.1,0,0,0,17.64,76.14,56.8,56.8,0,0,1-25.83-7.13v.72A57.07,57.07,0,0,0,208,294.26a56.82,56.82,0,0,1-25.75,1,57.09,57.09,0,0,0,53.26,39.61,114.38,114.38,0,0,1-70.82,24.41,117.24,117.24,0,0,1-13.59-.8,161.54,161.54,0,0,0,87.43,25.61c104.88,0,162.23-86.88,162.23-162.24,0-2.47-.06-4.93-.15-7.39A116.51,116.51,0,0,0,429.09,184.93Z" transform="translate(-73.95 -51)"/><path class="cls-1" d="M489.92,145.59l-1.19-14.82c-1.26-16.19-10.14-26.69-26.4-31.21L293.57,52.5,278.93,51l-16,4.47q-12.76,3.69-25.52,7.28L104.85,99.63c-15.27,4.25-24.24,14.66-25.94,30.11-4,35.91-5.54,68.41-4.77,99.34,1,40.84,5.84,76.85,14.78,110.06,9.4,35,27.22,66.05,54.47,95A301.74,301.74,0,0,0,256,509.41a18.6,18.6,0,0,0,1.92.61,54.09,54.09,0,0,0,24.57,5.84c11.17,0,21-3.26,28.4-6.1,49.64-19.21,91.9-49.39,125.6-89.68,21.9-26.18,36.68-56.55,45.17-92.84,9.7-41.48,13.44-85.76,11.4-135.36C492.43,176.15,491.15,160.61,489.92,145.59ZM280.83,72.18l8.19.73,167.7,46.79c7.68,2.14,10.6,5.46,11.16,12.71l1.19,14.87c1.22,14.82,2.48,30.14,3.12,45.46,1.95,47.69-1.6,90.13-10.87,129.73-7.73,33-21.1,60.58-40.85,84.19-31.41,37.55-70.81,65.67-117.11,83.6-5.65,2.18-13.12,4.69-20.85,4.69A33.76,33.76,0,0,1,266.67,491l-1.77-.69c-.72-.21-1.12-.33-1.46-.46a280.84,280.84,0,0,1-104.83-70.09c-24.82-26.34-41-54.49-49.49-86.05S96,267.73,95,228.56c-.74-30,.78-61.54,4.66-96.53.76-7,3.68-10.28,10.75-12.25L243.05,82.9c8.59-2.4,17.14-4.87,25.63-7.32Z" transform="translate(-73.95 -51)"/></svg>